<svg width="1280" height="640" viewBox="0 0 1280 640" fill="none" xmlns="http://www.w3.org/2000/svg">
  <defs>
    <linearGradient id="bg" x1="80" y1="40" x2="1190" y2="610" gradientUnits="userSpaceOnUse">
      <stop stop-color="#0A1224"/>
      <stop offset="0.55" stop-color="#0E1E3F"/>
      <stop offset="1" stop-color="#07111D"/>
    </linearGradient>
    <linearGradient id="accent" x1="190" y1="120" x2="1050" y2="520" gradientUnits="userSpaceOnUse">
      <stop stop-color="#57D3FF"/>
      <stop offset="0.5" stop-color="#5A7CFF"/>
      <stop offset="1" stop-color="#54F2C8"/>
    </linearGradient>
    <filter id="shadow" x="-40" y="-40" width="1360" height="720" filterUnits="userSpaceOnUse" color-interpolation-filters="sRGB">
      <feDropShadow dx="0" dy="20" stdDeviation="24" flood-color="#020817" flood-opacity="0.45"/>
    </filter>
  </defs>

  <rect width="1280" height="640" rx="28" fill="url(#bg)"/>
  <circle cx="1098" cy="96" r="176" fill="#4C7DFF" fill-opacity="0.08"/>
  <circle cx="150" cy="570" r="200" fill="#56E7C3" fill-opacity="0.07"/>
  <circle cx="1188" cy="622" r="120" fill="#57D3FF" fill-opacity="0.07"/>

  <g opacity="0.22">
    <path d="M0 146H1280" stroke="#8BB4FF"/>
    <path d="M0 494H1280" stroke="#8BB4FF"/>
    <path d="M240 0V640" stroke="#8BB4FF"/>
    <path d="M1018 0V640" stroke="#8BB4FF"/>
  </g>

  <g filter="url(#shadow)">
    <rect x="54" y="58" width="1172" height="524" rx="24" fill="#08101F" fill-opacity="0.82" stroke="#9DC7FF" stroke-opacity="0.12"/>
  </g>

  <rect x="92" y="92" width="146" height="34" rx="17" fill="#10243E" stroke="#1D4E89"/>
  <text x="119" y="114" fill="#B8D8FF" font-family="Inter, Arial, sans-serif" font-size="14" font-weight="700">v0.0.3</text>
  <circle cx="108" cy="109" r="4" fill="#56E7C3"/>

  <text x="92" y="182" fill="white" font-family="Inter, Arial, sans-serif" font-size="62" font-weight="800">Frontend Vibe Suite</text>
  <text x="92" y="228" fill="#C5D6F7" font-family="Inter, Arial, sans-serif" font-size="23" font-weight="500">
    Turn style interviews into concept video, translate the result with Qwen Omni,
  </text>
  <text x="92" y="261" fill="#C5D6F7" font-family="Inter, Arial, sans-serif" font-size="23" font-weight="500">
    and hand a grounded UI brief back to your coding workflow.
  </text>

  <g>
    <rect x="92" y="316" width="152" height="42" rx="10" fill="url(#accent)"/>
    <text x="123" y="343" fill="#07111D" font-family="Inter, Arial, sans-serif" font-size="16" font-weight="800">Multimodal UI Loop</text>
    <rect x="258" y="316" width="165" height="42" rx="10" fill="#11223A" stroke="#294D82"/>
    <text x="288" y="343" fill="#D7E5FF" font-family="Inter, Arial, sans-serif" font-size="16" font-weight="700">Codex Plugin Repo</text>
  </g>

  <g>
    <rect x="736" y="136" width="424" height="348" rx="20" fill="#0A1529" stroke="#294D82"/>
    <rect x="768" y="168" width="362" height="60" rx="14" fill="#0F2442" stroke="#2B5E9D"/>
    <text x="796" y="206" fill="#F3F8FF" font-family="Inter, Arial, sans-serif" font-size="23" font-weight="700">Style Interview</text>

    <rect x="768" y="246" width="362" height="60" rx="14" fill="#0E223B" stroke="#2B5E9D"/>
    <text x="796" y="284" fill="#F3F8FF" font-family="Inter, Arial, sans-serif" font-size="23" font-weight="700">Wan Image + Video</text>

    <rect x="768" y="324" width="362" height="60" rx="14" fill="#0E223B" stroke="#2B5E9D"/>
    <text x="796" y="362" fill="#F3F8FF" font-family="Inter, Arial, sans-serif" font-size="23" font-weight="700">Qwen Omni Translation</text>

    <rect x="768" y="402" width="362" height="50" rx="14" fill="url(#accent)"/>
    <text x="796" y="434" fill="#07111D" font-family="Inter, Arial, sans-serif" font-size="22" font-weight="800">Implementation Handoff</text>

    <path d="M948 230V244" stroke="#6EDBFF" stroke-width="3" stroke-linecap="round"/>
    <path d="M948 308V322" stroke="#6EDBFF" stroke-width="3" stroke-linecap="round"/>
    <path d="M948 386V400" stroke="#6EDBFF" stroke-width="3" stroke-linecap="round"/>
  </g>

  <g>
    <rect x="92" y="408" width="556" height="98" rx="18" fill="#0C1930" stroke="#28476F"/>
    <text x="120" y="446" fill="#F3F8FF" font-family="Inter, Arial, sans-serif" font-size="22" font-weight="700">What ships in this repo</text>
    <text x="120" y="476" fill="#C5D6F7" font-family="Inter, Arial, sans-serif" font-size="18" font-weight="500">
      Prompt-pack generation, Wan wrappers, Qwen translator, build handoff, examples,
    </text>
    <text x="120" y="503" fill="#C5D6F7" font-family="Inter, Arial, sans-serif" font-size="18" font-weight="500">
      plugin manifest, local marketplace entry, release-ready docs.
    </text>
  </g>
</svg>
